<svg aria-hidden="true" style="position: absolute; width: 0; height: 0; overflow: hidden;" version="1.1" xmlns="http://www.w3.org/2000/svg" xmlns:xlink="http://www.w3.org/1999/xlink">
<defs>
<symbol id="icon-twitter" viewBox="0 0 42 32">
<path d="M38.797 4.347c-1.371 0.608-2.846 1.019-4.393 1.203 1.58-0.946 2.792-2.444 3.364-4.231-1.478 0.877-3.116 1.513-4.857 1.856-1.395-1.486-3.383-2.415-5.584-2.415-4.223 0-7.649 3.425-7.649 7.649 0 0.6 0.068 1.183 0.199 1.743-6.357-0.319-11.993-3.364-15.766-7.993-0.658 1.129-1.036 2.444-1.036 3.846 0 2.653 1.351 4.995 3.403 6.367-1.253-0.039-2.433-0.383-3.464-0.958-0.001 0.033-0.001 0.065-0.001 0.097 0 3.706 2.638 6.797 6.136 7.499-0.641 0.176-1.318 0.269-2.015 0.269-0.494 0-0.973-0.047-1.439-0.136 0.973 3.038 3.797 5.25 7.145 5.312-2.618 2.052-5.916 3.274-9.5 3.274-0.616 0-1.226-0.036-1.824-0.107 3.383 2.171 7.405 3.437 11.724 3.437 14.069 0 21.763-11.655 21.763-21.763 0-0.331-0.008-0.662-0.022-0.989 1.496-1.078 2.792-2.425 3.817-3.959z"></path>
</symbol>
<symbol id="icon-youtube" viewBox="0 0 44 32">
<path d="M40.931 8.968c0-3.353-2.716-6.071-6.068-6.071h-28.469c-3.351 0-6.067 2.719-6.067 6.071v16.28c0 3.353 2.716 6.071 6.067 6.071h28.468c3.352 0 6.068-2.719 6.068-6.071v-16.28h0zM16.568 23.975v-15.291l11.596 7.646-11.596 7.645z"></path>
</symbol>
<symbol id="icon-instagram" viewBox="0 0 30 32">
<path d="M18.153 15.5c0 1.611-1.306 2.917-2.917 2.917s-2.917-1.306-2.917-2.917c0-1.611 1.306-2.917 2.917-2.917s2.917 1.306 2.917 2.917z"></path>
<path d="M22.057 10.34c-0.14-0.38-0.364-0.724-0.655-1.006-0.282-0.291-0.626-0.514-1.006-0.655-0.308-0.12-0.771-0.262-1.625-0.301-0.923-0.042-1.2-0.051-3.536-0.051s-2.613 0.009-3.536 0.051c-0.853 0.039-1.316 0.182-1.625 0.301-0.38 0.14-0.724 0.364-1.006 0.655-0.291 0.282-0.514 0.626-0.655 1.006-0.12 0.308-0.262 0.772-0.301 1.625-0.042 0.923-0.051 1.199-0.051 3.536s0.009 2.613 0.051 3.536c0.039 0.853 0.181 1.316 0.301 1.625 0.14 0.38 0.364 0.724 0.655 1.006 0.282 0.291 0.626 0.514 1.006 0.654 0.308 0.12 0.772 0.263 1.625 0.301 0.923 0.042 1.199 0.051 3.536 0.051s2.613-0.009 3.536-0.051c0.853-0.039 1.317-0.181 1.625-0.301 0.763-0.294 1.366-0.898 1.661-1.661 0.12-0.308 0.262-0.771 0.301-1.625 0.042-0.923 0.051-1.2 0.051-3.536s-0.009-2.613-0.051-3.536c-0.039-0.853-0.181-1.316-0.301-1.625zM15.236 19.993c-2.482 0-4.493-2.012-4.493-4.493s2.012-4.493 4.493-4.493c2.481 0 4.493 2.011 4.493 4.493s-2.012 4.493-4.493 4.493zM19.907 11.879c-0.58 0-1.050-0.47-1.050-1.050s0.47-1.050 1.050-1.050c0.58 0 1.050 0.47 1.050 1.050s-0.47 1.050-1.050 1.050z"></path>
<path d="M15.237 0.262c-8.414 0-15.238 6.824-15.238 15.238s6.824 15.238 15.238 15.238 15.238-6.824 15.238-15.238c0-8.415-6.824-15.238-15.238-15.238zM23.934 19.108c-0.042 0.931-0.19 1.567-0.407 2.124-0.455 1.175-1.384 2.104-2.559 2.559-0.556 0.216-1.193 0.364-2.124 0.407-0.933 0.043-1.231 0.053-3.607 0.053s-2.674-0.010-3.608-0.053c-0.931-0.043-1.567-0.19-2.124-0.407-0.584-0.22-1.113-0.564-1.55-1.009-0.445-0.437-0.789-0.966-1.009-1.55-0.216-0.556-0.364-1.193-0.407-2.124-0.043-0.933-0.053-1.231-0.053-3.608s0.010-2.674 0.053-3.607c0.042-0.931 0.19-1.567 0.406-2.124 0.22-0.584 0.564-1.113 1.010-1.55 0.437-0.445 0.966-0.79 1.55-1.009 0.557-0.216 1.193-0.364 2.124-0.407 0.933-0.043 1.231-0.053 3.607-0.053s2.674 0.010 3.607 0.053c0.931 0.042 1.567 0.19 2.124 0.406 0.584 0.22 1.113 0.564 1.55 1.010 0.445 0.437 0.79 0.966 1.009 1.55 0.217 0.557 0.364 1.193 0.407 2.124 0.043 0.933 0.053 1.231 0.053 3.607s-0.010 2.674-0.053 3.607z"></path>
</symbol>
<symbol id="icon-facebook" viewBox="0 0 16 32">
<path d="M14.887 15.002h-4.079v14.942h-6.179v-14.942h-2.939v-5.251h2.939v-3.398c0-2.43 1.154-6.235 6.234-6.235l4.577 0.019v5.097h-3.321c-0.545 0-1.311 0.272-1.311 1.431v3.090h4.618l-0.54 5.246z"></path>
</symbol>
<symbol id="icon-arrow" viewBox="0 0 32 32">
<path d="M30.649 15.41l-8.962-8.963c-0.547-0.547-1.434-0.547-1.981 0s-0.547 1.434 0 1.98l6.572 6.572h-23.936c-0.773 0-1.4 0.627-1.4 1.4s0.627 1.4 1.4 1.4h23.936l-6.572 6.572c-0.547 0.547-0.547 1.433 0 1.98 0.273 0.273 0.632 0.41 0.99 0.41s0.717-0.137 0.99-0.41l8.962-8.962c0.547-0.547 0.547-1.434 0-1.98z"></path>
</symbol>
<symbol id="icon-search" viewBox="0 0 32 32">
<path d="M13.973 1.008c-7.459 0-13.528 6.073-13.528 13.538s6.069 13.538 13.528 13.538c7.46 0 13.528-6.073 13.528-13.538s-6.069-13.538-13.528-13.538zM13.973 25.585c-6.082 0-11.031-4.952-11.031-11.039s4.949-11.039 11.031-11.039c6.082 0 11.031 4.952 11.031 11.039s-4.948 11.039-11.031 11.039z"></path>
<path d="M30.799 29.617l-7.16-7.165c-0.488-0.488-1.278-0.488-1.766 0s-0.488 1.279 0 1.767l7.16 7.165c0.244 0.244 0.563 0.366 0.883 0.366s0.639-0.122 0.883-0.366c0.488-0.488 0.488-1.279 0-1.767z"></path>
</symbol>
<symbol id="icon-burger" viewBox="0 0 31 32">
<path d="M30.721 23.211h-18.355v3.415h18.355v-3.415zM30.72 14.671h-30.72v3.415h30.72v-3.415zM18.415 6.131h-18.415v3.415h18.415v-3.415z"></path>
</symbol>
<symbol id="icon-shield" viewBox="0 0 32 32">
<path d="M29.326 9.027l-0.001-0.024c-0.014-0.301-0.023-0.62-0.028-0.975-0.026-1.73-1.401-3.161-3.131-3.257-3.607-0.201-6.397-1.377-8.782-3.701l-0.020-0.019c-0.778-0.713-1.951-0.713-2.729 0l-0.020 0.019c-2.384 2.324-5.175 3.5-8.782 3.702-1.73 0.096-3.105 1.527-3.131 3.257-0.005 0.352-0.015 0.671-0.028 0.975l-0.001 0.057c-0.070 3.678-0.157 8.256 1.374 12.411 0.842 2.285 2.117 4.271 3.79 5.904 1.905 1.859 4.401 3.335 7.417 4.387 0.098 0.034 0.2 0.062 0.304 0.083 0.146 0.029 0.294 0.044 0.441 0.044s0.295-0.015 0.441-0.044c0.104-0.021 0.207-0.049 0.305-0.083 3.013-1.054 5.506-2.53 7.409-4.39 1.672-1.633 2.947-3.62 3.79-5.905 1.537-4.167 1.45-8.754 1.38-12.439zM26.219 20.829c-1.615 4.379-4.912 7.387-10.080 9.194-0.018 0.006-0.038 0.012-0.058 0.016-0.053 0.011-0.108 0.011-0.162-0-0.020-0.004-0.040-0.009-0.058-0.016-5.173-1.804-8.472-4.81-10.086-9.189-1.411-3.83-1.332-8.032-1.261-11.739l0-0.021c0.014-0.319 0.024-0.652 0.029-1.019 0.011-0.768 0.623-1.404 1.393-1.446 2.041-0.114 3.834-0.508 5.482-1.206 1.646-0.697 3.107-1.678 4.467-3.001 0.069-0.058 0.159-0.059 0.228 0 1.361 1.323 2.822 2.305 4.468 3.001 1.648 0.697 3.441 1.092 5.482 1.206 0.77 0.043 1.381 0.678 1.393 1.447 0.006 0.369 0.015 0.702 0.029 1.019 0.070 3.711 0.148 7.917-1.267 11.755z"></path>
<path d="M16 8.384c-4.311 0-7.818 3.507-7.818 7.818s3.507 7.819 7.818 7.819c4.311 0 7.818-3.508 7.818-7.819s-3.508-7.818-7.818-7.818zM16 22.18c-3.296 0-5.978-2.681-5.978-5.978s2.682-5.978 5.978-5.978c3.296 0 5.977 2.681 5.977 5.978s-2.681 5.978-5.977 5.978z"></path>
<path d="M18.247 13.775l-3.631 3.631-0.986-0.986c-0.359-0.36-0.942-0.36-1.302 0s-0.359 0.942 0 1.302l1.637 1.637c0.18 0.18 0.415 0.27 0.651 0.27s0.471-0.090 0.651-0.27l4.283-4.283c0.359-0.359 0.359-0.942 0-1.302s-0.942-0.36-1.302 0z"></path>
</symbol>
<symbol id="icon-check_mark" viewBox="0 0 32 32">
<path d="M30.006 11.632c-0.414-1.282-0.238-3.206-1.314-4.692-1.084-1.497-2.971-1.923-4.035-2.702-1.054-0.771-2.034-2.448-3.807-3.026-1.723-0.562-3.484 0.201-4.85 0.201s-3.127-0.763-4.85-0.201c-1.772 0.578-2.753 2.256-3.807 3.026-1.064 0.778-2.951 1.205-4.036 2.702-1.075 1.485-0.9 3.413-1.314 4.692-0.393 1.217-1.681 2.678-1.681 4.569 0 1.893 1.286 3.348 1.681 4.569 0.414 1.282 0.237 3.206 1.313 4.692 1.084 1.497 2.97 1.923 4.036 2.702 1.054 0.771 2.034 2.448 3.807 3.026 1.721 0.562 3.486-0.201 4.85-0.201 1.362 0 3.131 0.762 4.85 0.201 1.772-0.578 2.753-2.255 3.807-3.026 1.064-0.778 2.951-1.205 4.036-2.702 1.075-1.485 0.9-3.413 1.314-4.692 0.393-1.217 1.68-2.678 1.68-4.57 0-1.893-1.285-3.347-1.68-4.569zM27.674 20.017c-0.483 1.494-0.356 3.165-0.966 4.008-0.619 0.854-2.243 1.244-3.497 2.161-1.24 0.907-2.109 2.345-3.12 2.674-0.956 0.312-2.515-0.322-4.090-0.322-1.586 0-3.129 0.635-4.090 0.322-1.011-0.33-1.879-1.767-3.12-2.674-1.246-0.912-2.881-1.31-3.497-2.161-0.608-0.84-0.487-2.523-0.966-4.008-0.47-1.455-1.562-2.714-1.562-3.816 0-1.103 1.091-2.358 1.562-3.816 0.483-1.494 0.356-3.165 0.966-4.008 0.618-0.853 2.244-1.245 3.497-2.161 1.244-0.91 2.108-2.344 3.12-2.674 0.956-0.312 2.519 0.322 4.090 0.322 1.589 0 3.128-0.636 4.090-0.322 1.011 0.33 1.879 1.767 3.12 2.675 1.246 0.912 2.881 1.31 3.497 2.161 0.608 0.84 0.486 2.521 0.966 4.008v0c0.47 1.455 1.562 2.714 1.562 3.816 0 1.103-1.091 2.358-1.562 3.816zM21.646 12.267c0.479 0.479 0.479 1.255 0 1.733l-6.134 6.134c-0.479 0.479-1.255 0.479-1.733 0l-3.425-3.425c-0.479-0.479-0.479-1.255-0-1.733s1.255-0.479 1.733 0l2.558 2.558 5.267-5.267c0.479-0.479 1.255-0.479 1.733-0z"></path>
</symbol>
<symbol id="icon-car_free" viewBox="0 0 32 32">
<path d="M25.845 13h-3.019v-2.034c0-0.508-0.412-0.919-0.919-0.919h-20.674c-0.508 0-0.919 0.412-0.919 0.919v16.736c0 0.508 0.412 0.919 0.919 0.919h3.13c1 3.914 6.524 3.912 7.523 0h8.229c1 3.914 6.524 3.912 7.523 0h3.13c0.508 0 0.919-0.412 0.919-0.919v-8.86c0-3.221-2.621-5.841-5.841-5.841zM8.124 29.736c-1.122 0-2.034-0.913-2.034-2.034 0.112-2.699 3.957-2.698 4.069 0 0 1.122-0.913 2.034-2.034 2.034zM20.988 25.125c-0.416 0.466-0.721 1.032-0.873 1.657h-8.229c-1-3.914-6.524-3.912-7.523 0h-2.211v-14.898h18.836v13.241zM23.876 29.736c-1.122 0-2.034-0.913-2.034-2.034 0.112-2.699 3.957-2.698 4.069 0 0 1.122-0.913 2.034-2.034 2.034zM29.848 26.782h-2.21c-0.414-1.693-1.944-2.953-3.762-2.953h-1.050v-8.991h2.1v5.972c0 0.508 0.412 0.919 0.919 0.919h4.003v5.053zM29.848 19.891h-3.084v-4.947c1.766 0.416 3.084 2.006 3.084 3.897v1.050z"></path>
<path d="M22.891 7.947h2.461c1.22-0.049 1.219-1.79 0-1.838h-1.376l0.186-1.115h1.19c1.22-0.049 1.219-1.79 0-1.838h-0.884l0.186-1.115h1.683c1.219-0.049 1.219-1.79 0-1.838h-2.461c-0.449 0-0.833 0.325-0.907 0.768l-0.984 5.907c-0.093 0.56 0.34 1.070 0.907 1.070z"></path>
<path d="M16.984 7.947h2.461c1.219-0.049 1.219-1.79 0-1.838h-1.376l0.186-1.115h1.19c1.219-0.049 1.219-1.79 0-1.838h-0.884l0.186-1.115h1.683c1.22-0.049 1.219-1.79 0-1.838h-2.461c-0.449 0-0.833 0.325-0.907 0.768l-0.984 5.907c-0.093 0.56 0.339 1.070 0.907 1.070zM9.942 7.934c0.714 0.119 1.015-0.499 1.058-0.755l0.151-0.904 1.809 1.467c0.418 0.339 0.993 0.235 1.293-0.135 0.32-0.394 0.259-0.973-0.135-1.293l-1.021-0.828h0.853c0.449 0 0.833-0.325 0.907-0.768l0.574-3.446c0.093-0.56-0.339-1.070-0.907-1.070h-3.446c-0.449 0-0.833 0.325-0.907 0.768l-0.57 3.422c-0 0.001-0 0.003-0.001 0.004-0 0.002-0.001 0.005-0.001 0.007-0.002 0.011-0.004 0.022-0.006 0.034l-0.407 2.44c-0.084 0.501 0.255 0.974 0.756 1.058zM11.856 2.040h1.582l-0.268 1.607h-1.582l0.268-1.607zM4.527 7.934c0.714 0.119 1.015-0.499 1.058-0.755l0.282-1.693h1.272c1.219-0.049 1.219-1.79 0-1.838h-0.966l0.268-1.607h1.683c1.22-0.049 1.219-1.79 0-1.838h-2.461c-0.449 0-0.833 0.325-0.907 0.768l-0.984 5.907c-0.084 0.501 0.255 0.974 0.756 1.058z"></path>
</symbol>
<symbol id="icon-right_arrow" viewBox="0 0 32 32">
<path d="M7.632 17.868l13.403 13.403c0.31 0.31 0.724 0.481 1.165 0.481s0.855-0.171 1.165-0.481l0.987-0.987c0.642-0.643 0.642-1.688 0-2.33l-11.255-11.255 11.267-11.267c0.31-0.31 0.481-0.724 0.481-1.165s-0.171-0.855-0.481-1.165l-0.987-0.987c-0.31-0.31-0.724-0.481-1.165-0.481s-0.855 0.171-1.165 0.481l-13.415 13.415c-0.311 0.311-0.481 0.727-0.48 1.168-0.001 0.443 0.17 0.859 0.48 1.17z"></path>
</symbol>
<symbol id="icon-favorite" viewBox="0 0 32 32">
<path d="M17.284 29.627c-0.414 0-0.813-0.15-1.125-0.423-1.175-1.028-2.308-1.993-3.308-2.845l-0.005-0.004c-2.931-2.498-5.462-4.654-7.223-6.779-1.968-2.375-2.885-4.627-2.885-7.088 0-2.39 0.82-4.596 2.308-6.21 1.506-1.633 3.572-2.533 5.819-2.533 1.679 0 3.217 0.531 4.571 1.578 0.683 0.528 1.302 1.175 1.848 1.93 0.546-0.754 1.165-1.401 1.848-1.93 1.354-1.047 2.892-1.578 4.571-1.578 2.247 0 4.313 0.9 5.819 2.533 1.488 1.614 2.308 3.819 2.308 6.21 0 2.46-0.917 4.712-2.885 7.087-1.761 2.125-4.292 4.282-7.222 6.779-1.001 0.853-2.136 1.82-3.314 2.851-0.311 0.272-0.71 0.422-1.124 0.422zM10.865 5.45c-1.765 0-3.387 0.704-4.566 1.984-1.197 1.299-1.857 3.094-1.857 5.055 0 2.069 0.769 3.92 2.493 6 1.667 2.011 4.145 4.124 7.016 6.57l0.005 0.004c1.003 0.855 2.141 1.825 3.325 2.86 1.191-1.037 2.33-2.008 3.336-2.865 2.87-2.446 5.349-4.558 7.015-6.569 1.724-2.081 2.493-3.931 2.493-6 0-1.961-0.66-3.756-1.857-5.055-1.179-1.279-2.801-1.984-4.566-1.984-1.293 0-2.48 0.411-3.529 1.222-0.934 0.723-1.585 1.636-1.966 2.275-0.196 0.329-0.542 0.525-0.924 0.525s-0.728-0.196-0.924-0.525c-0.381-0.639-1.032-1.553-1.966-2.275-1.048-0.811-2.235-1.222-3.528-1.222z"></path>
</symbol>
<symbol id="icon-share" viewBox="0 0 32 32">
<path d="M25.807 21.018c-1.684 0-3.18 0.818-4.112 2.078l-8.027-4.102c0.135-0.457 0.207-0.941 0.207-1.442 0-0.678-0.133-1.325-0.374-1.918l8.412-5.054c0.939 1.102 2.335 1.802 3.893 1.802 2.82 0 5.114-2.294 5.114-5.114s-2.294-5.114-5.114-5.114c-2.82 0-5.114 2.294-5.114 5.114 0 0.652 0.123 1.275 0.346 1.849l-8.434 5.067c-0.938-1.069-2.314-1.745-3.844-1.745-2.82 0-5.114 2.294-5.114 5.114s2.294 5.114 5.114 5.114c1.711 0 3.229-0.845 4.158-2.14l8.003 4.090c-0.149 0.479-0.229 0.988-0.229 1.516 0 2.82 2.294 5.114 5.114 5.114s5.114-2.294 5.114-5.114-2.294-5.114-5.114-5.114zM25.807 3.859c1.88 0 3.409 1.529 3.409 3.409s-1.529 3.409-3.409 3.409c-1.88 0-3.409-1.529-3.409-3.409s1.529-3.409 3.409-3.409zM8.761 20.962c-1.88 0-3.409-1.529-3.409-3.409s1.529-3.409 3.409-3.409 3.409 1.529 3.409 3.409-1.529 3.409-3.409 3.409zM25.807 29.541c-1.88 0-3.409-1.529-3.409-3.409s1.529-3.409 3.409-3.409c1.88 0 3.409 1.529 3.409 3.409s-1.529 3.409-3.409 3.409z"></path>
</symbol>
<symbol id="icon-sofa" viewBox="0 0 32 32">
<path d="M6.641 15.698h7.86c0.691 0 1.322 0.261 1.8 0.69 0.478-0.428 1.109-0.69 1.8-0.69h7.86v-9.652c0-0.495-0.396-0.906-0.89-0.908h-17.529c-0.512 0-0.9 0.42-0.9 0.908v9.652zM17.201 18.398v2.1h8.76v-3h-7.86c-0.496 0-0.9 0.404-0.9 0.9z"></path>
<path d="M28.752 11.38c-0.555 0.017-0.991 0.483-0.991 1.038v8.981c0 0.497-0.403 0.9-0.9 0.9h-21.12c-0.497 0-0.9-0.403-0.9-0.9v-8.981c0-0.555-0.436-1.020-0.991-1.038-1.599-0.050-2.909 1.229-2.909 2.819v9.24c0 1.491 1.209 2.7 2.7 2.7h1.2v0.995c0 0.485 0.372 0.902 0.857 0.924 0.517 0.024 0.944-0.387 0.944-0.899v-1.020h19.32v0.995c0 0.485 0.372 0.902 0.857 0.924 0.517 0.024 0.944-0.387 0.944-0.899v-1.020h1.2c1.491 0 2.7-1.209 2.7-2.7v-9.189c0-1.662-1.321-2.919-2.909-2.869z"></path>
<path d="M15.401 18.398c0-0.496-0.404-0.9-0.9-0.9h-7.86v3h8.76v-2.1z"></path>
</symbol>
<symbol id="icon-kitchen" viewBox="0 0 32 32">
<path d="M0.978 31.958h12.654v-7.257h-12.654v7.257zM3.745 26.581h7.179v1.799h-7.179v-1.799zM0.978 22.903h12.654v-7.136h-12.654v7.136zM3.745 17.68h7.179v1.799h-7.179v-1.799zM15.43 31.959h16.252v-16.192h-16.252v16.192zM26.225 17.68h1.799v1.843h-1.799v-1.843zM22.627 17.68h1.799v1.843h-1.799v-1.843zM19.028 17.68h1.799v1.843h-1.799v-1.843zM19.028 21.134h8.996v7.227h-8.996v-7.227zM26.225 5.386v-4.148h-5.397v4.151l-5.398 3.598v3.18h16.252v-3.183l-5.458-3.598z"></path>
</symbol>
<symbol id="icon-workplace" viewBox="0 0 32 32">
<path d="M30.79 9.118v-6c0-1.158-0.942-2.1-2.1-2.1h-10.8c-1.158 0-2.1 0.942-2.1 2.1v6c0 1.158 0.942 2.1 2.1 2.1h2.447l-0.45 1.8h-5.037l-0.183-4.023c-0.066-1.445-1.251-2.577-2.697-2.577h-4.96c-1.447 0-2.631 1.132-2.697 2.577l-0.183 4.023h-3.16c-0.497 0-0.9 0.403-0.9 0.9v15.6c0 0.497 0.403 0.9 0.9 0.9s0.9-0.403 0.9-0.9v-11.1h2.045c0.066 0.741 0.377 1.432 0.9 1.98 0.533 0.557 1.223 0.902 1.974 0.994v1.526c0 1.056 0.784 1.932 1.8 2.078v2.163l-3.547 1.014c-0.386 0.11-0.653 0.464-0.653 0.865v1.8c0 0.497 0.403 0.9 0.9 0.9s0.9-0.403 0.9-0.9v-1.121l2.4-0.686v1.207c0 0.497 0.403 0.9 0.9 0.9s0.9-0.403 0.9-0.9v-1.207l2.4 0.686v1.121c0 0.497 0.403 0.9 0.9 0.9s0.9-0.403 0.9-0.9v-1.8c0-0.402-0.266-0.755-0.653-0.865l-3.547-1.014v-2.163c1.016-0.146 1.8-1.022 1.8-2.078v-1.526c0.752-0.092 1.442-0.437 1.974-0.994 0.524-0.548 0.835-1.239 0.9-1.98h1.925v11.1c0 0.497 0.403 0.9 0.9 0.9s0.9-0.403 0.9-0.9v-2.7h10.2v2.7c0 0.497 0.403 0.9 0.9 0.9s0.9-0.403 0.9-0.9v-15.6c0-0.497-0.403-0.9-0.9-0.9h-3.197l-0.45-1.8h2.447c1.158 0 2.1-0.942 2.1-2.1zM3.966 16.618h-2.096v-1.8h2.178l-0.082 1.8zM10.39 22.918c0 0.166-0.135 0.3-0.3 0.3h-1.2c-0.165 0-0.3-0.135-0.3-0.3v-1.5h1.8v1.5zM12.863 19.154c-0.286 0.299-0.671 0.464-1.084 0.464h-4.577c-0.414 0-0.799-0.165-1.084-0.464s-0.433-0.691-0.414-1.104l0.408-8.973c0.022-0.482 0.417-0.859 0.899-0.859h4.96c0.482 0 0.877 0.377 0.899 0.859l0.408 8.973c0.019 0.413-0.128 0.805-0.414 1.104zM28.99 25.018h-10.2v-6.6h10.2v6.6zM28.99 14.818v1.8h-13.976l-0.082-1.8h14.058zM21.743 13.018l0.45-1.8h2.195l0.45 1.8h-3.095zM17.89 9.418c-0.166 0-0.3-0.135-0.3-0.3v-6c0-0.165 0.135-0.3 0.3-0.3h10.8c0.165 0 0.3 0.135 0.3 0.3v6c0 0.165-0.135 0.3-0.3 0.3h-10.8z"></path>
<path d="M22.090 22.018h3.6c0.497 0 0.9-0.403 0.9-0.9s-0.403-0.9-0.9-0.9h-3.6c-0.497 0-0.9 0.403-0.9 0.9s0.403 0.9 0.9 0.9z"></path>
</symbol>
<symbol id="icon-dining_room" viewBox="0 0 32 32">
<path d="M25.157 12.643c0.36 0 0.651-0.291 0.651-0.651v-2.088c0-0.36-0.291-0.651-0.651-0.651l-0.926 0.006-3.040 3.385h3.967zM5.644 12.643h3.998l-3.093-3.39h-0.905c-0.36 0-0.651 0.291-0.651 0.651v2.088c0 0.36 0.291 0.651 0.651 0.651zM15.773 16l6.033-6.747h-12.812l6.132 6.75c0.174 0.191 0.475 0.19 0.647-0.003zM17.471 25.495h-1.121v-7.576c-0.269 0.155-0.576 0.24-0.893 0.241h-0.007c-0.319 0-0.629-0.085-0.9-0.241v7.576h-1.223c-0.497 0-0.9 0.403-0.9 0.9s0.403 0.9 0.9 0.9h4.144c0.497 0 0.9-0.403 0.9-0.9s-0.403-0.9-0.9-0.9z"></path>
<path d="M7.631 15.147h-5.79v-10.669c0-0.497-0.403-0.9-0.9-0.9s-0.9 0.403-0.9 0.9v21.989c0 0.497 0.403 0.9 0.9 0.9s0.9-0.403 0.9-0.9v-6.723h6.544v6.723c0 0.497 0.403 0.9 0.9 0.9s0.9-0.403 0.9-0.9v-8.766c0-1.409-1.146-2.555-2.554-2.555zM29.86 3.578c-0.497 0-0.9 0.403-0.9 0.9v10.669h-5.656c-1.409 0-2.555 1.146-2.555 2.555v8.766c0 0.497 0.403 0.9 0.9 0.9s0.9-0.403 0.9-0.9v-6.724h6.41v6.724c0 0.497 0.403 0.9 0.9 0.9s0.9-0.403 0.9-0.9v-21.989c-0-0.497-0.403-0.9-0.9-0.9z"></path>
</symbol>
<symbol id="icon-bedroom" viewBox="0 0 32 32">
<path d="M2.941 18.213h25.621c1.056 0 1.912-0.856 1.912-1.912s-0.856-1.912-1.912-1.912h-25.621c-1.056 0-1.912 0.856-1.912 1.912s0.856 1.912 1.912 1.912zM17.663 10.265c-0.558 0-1.012 0.454-1.012 1.012v1.312h7.832v-1.312c0-0.558-0.454-1.012-1.012-1.012h-5.808z"></path>
<path d="M5.219 11.277c0-1.551 1.261-2.812 2.812-2.812h5.808c0.738 0 1.41 0.286 1.912 0.753 0.502-0.467 1.174-0.753 1.912-0.753h5.808c1.551 0 2.812 1.261 2.812 2.812v1.312h2.921v-6.199c0-1.056-0.856-1.912-1.912-1.912h-23.083c-1.056 0-1.912 0.856-1.912 1.912v6.199h2.921v-1.312z"></path>
<path d="M8.031 10.265c-0.558 0-1.012 0.454-1.012 1.012v1.312h7.832v-1.312c0-0.558-0.454-1.012-1.012-1.012h-5.808zM0.391 20.013v8.281h1.8v-3.282h27.12v3.282h1.8v-8.281h-30.72z"></path>
</symbol>
<symbol id="icon-wardrobe" viewBox="0 0 32 32">
<path d="M31.21 9.495h-29.76c-0.266 0-0.48-0.214-0.48-0.48v-1.921c0-0.266 0.214-0.48 0.48-0.48h29.76c0.266 0 0.48 0.214 0.48 0.48v1.921c0 0.266-0.214 0.48-0.48 0.48zM1.93 8.535h28.8v-0.961h-28.8v0.961z"></path>
<path d="M1.93 24.384c-0.266 0-0.48-0.214-0.48-0.48v-14.803c0-0.266 0.214-0.48 0.48-0.48s0.48 0.214 0.48 0.48v14.803c0 0.266-0.214 0.48-0.48 0.48zM3.37 24.384c-0.266 0-0.48-0.214-0.48-0.48v-14.803c0-0.266 0.214-0.48 0.48-0.48s0.48 0.214 0.48 0.48v14.803c0 0.266-0.214 0.48-0.48 0.48zM29.29 24.384c-0.265 0-0.48-0.214-0.48-0.48v-14.803c0-0.266 0.215-0.48 0.48-0.48s0.48 0.214 0.48 0.48v14.803c0 0.266-0.214 0.48-0.48 0.48zM30.73 24.384c-0.265 0-0.48-0.214-0.48-0.48v-14.803c0-0.266 0.215-0.48 0.48-0.48s0.48 0.214 0.48 0.48v14.803c0 0.266-0.214 0.48-0.48 0.48z"></path>
<path d="M3.37 24.384h-1.44c-0.266 0-0.48-0.214-0.48-0.48s0.214-0.48 0.48-0.48h1.44c0.266 0 0.48 0.215 0.48 0.48s-0.214 0.48-0.48 0.48zM30.73 24.384h-1.44c-0.265 0-0.48-0.214-0.48-0.48s0.215-0.48 0.48-0.48h1.44c0.266 0 0.48 0.215 0.48 0.48s-0.214 0.48-0.48 0.48zM29.29 16.221h-25.92c-0.266 0-0.48-0.215-0.48-0.48s0.214-0.48 0.48-0.48h25.92c0.266 0 0.48 0.214 0.48 0.48s-0.214 0.48-0.48 0.48zM29.29 17.662h-25.92c-0.266 0-0.48-0.215-0.48-0.48s0.214-0.48 0.48-0.48h25.92c0.266 0 0.48 0.214 0.48 0.48s-0.214 0.48-0.48 0.48z"></path>
<path d="M5.29 16.222c-0.266 0-0.48-0.215-0.48-0.48 0-1.324 1.076-2.4 2.4-2.4 0.265 0 0.48 0.214 0.48 0.48s-0.215 0.48-0.48 0.48c-0.793 0-1.44 0.646-1.44 1.44 0 0.265-0.215 0.48-0.48 0.48zM10.090 16.222c-0.266 0-0.48-0.215-0.48-0.48 0-0.794-0.646-1.44-1.44-1.44-0.265 0-0.48-0.215-0.48-0.48s0.215-0.48 0.48-0.48c1.323 0 2.4 1.076 2.4 2.4 0 0.265-0.214 0.48-0.48 0.48z"></path>
<path d="M5.77 14.953c-0.266 0-0.48-0.215-0.48-0.48v-2.57c0-0.266 0.214-0.48 0.48-0.48s0.48 0.214 0.48 0.48v2.57c0 0.265-0.215 0.48-0.48 0.48zM9.607 14.953c-0.266 0-0.48-0.215-0.48-0.48v-2.57c0-0.266 0.214-0.48 0.48-0.48s0.48 0.214 0.48 0.48v2.57c0 0.265-0.215 0.48-0.48 0.48zM6.73 12.863c-0.266 0-0.48-0.215-0.48-0.48v-1.441c0-0.266 0.214-0.48 0.48-0.48s0.48 0.214 0.48 0.48v1.441c0 0.265-0.214 0.48-0.48 0.48z"></path>
<path d="M8.65 11.422h-1.92c-0.266 0-0.48-0.215-0.48-0.48s0.214-0.48 0.48-0.48h1.92c0.266 0 0.48 0.214 0.48 0.48s-0.214 0.48-0.48 0.48z"></path>
<path d="M8.65 12.863c-0.266 0-0.48-0.215-0.48-0.48v-1.441c0-0.266 0.214-0.48 0.48-0.48s0.48 0.214 0.48 0.48v1.441c0 0.265-0.214 0.48-0.48 0.48zM6.731 12.382h-0.961c-0.266 0-0.48-0.215-0.48-0.48s0.214-0.48 0.48-0.48h0.961c0.266 0 0.48 0.214 0.48 0.48s-0.214 0.48-0.48 0.48z"></path>
<path d="M9.608 12.382h-0.958c-0.266 0-0.48-0.215-0.48-0.48s0.214-0.48 0.48-0.48h0.958c0.265 0 0.48 0.214 0.48 0.48s-0.215 0.48-0.48 0.48zM8.169 14.302h-0.962c-0.266 0-0.48-0.215-0.48-0.48s0.214-0.48 0.48-0.48h0.962c0.266 0 0.48 0.214 0.48 0.48s-0.214 0.48-0.48 0.48zM11.53 16.222c-0.266 0-0.48-0.215-0.48-0.48 0-1.324 1.076-2.4 2.399-2.4 0.265 0 0.48 0.214 0.48 0.48s-0.215 0.48-0.48 0.48c-0.793 0-1.439 0.646-1.439 1.44 0 0.265-0.215 0.48-0.48 0.48zM16.329 16.222c-0.265 0-0.48-0.215-0.48-0.48 0-0.794-0.646-1.44-1.44-1.44-0.265 0-0.48-0.215-0.48-0.48s0.215-0.48 0.48-0.48c1.323 0 2.4 1.076 2.4 2.4 0 0.265-0.214 0.48-0.48 0.48z"></path>
<path d="M12.010 14.953c-0.266 0-0.48-0.215-0.48-0.48v-2.57c0-0.266 0.214-0.48 0.48-0.48s0.48 0.214 0.48 0.48v2.57c0 0.265-0.215 0.48-0.48 0.48zM15.848 14.953c-0.266 0-0.48-0.215-0.48-0.48v-2.57c0-0.266 0.214-0.48 0.48-0.48s0.48 0.214 0.48 0.48v2.57c0 0.265-0.215 0.48-0.48 0.48zM12.97 12.863c-0.266 0-0.48-0.215-0.48-0.48v-1.441c0-0.266 0.214-0.48 0.48-0.48s0.48 0.214 0.48 0.48v1.441c0 0.265-0.214 0.48-0.48 0.48z"></path>
<path d="M14.89 11.422h-1.92c-0.266 0-0.48-0.215-0.48-0.48s0.214-0.48 0.48-0.48h1.92c0.266 0 0.48 0.214 0.48 0.48s-0.214 0.48-0.48 0.48z"></path>
<path d="M14.89 12.863c-0.265 0-0.48-0.215-0.48-0.48v-1.441c0-0.266 0.215-0.48 0.48-0.48s0.48 0.214 0.48 0.48v1.441c0 0.265-0.214 0.48-0.48 0.48zM12.971 12.382h-0.961c-0.266 0-0.48-0.215-0.48-0.48s0.214-0.48 0.48-0.48h0.961c0.266 0 0.48 0.214 0.48 0.48s-0.214 0.48-0.48 0.48z"></path>
<path d="M15.848 12.382h-0.958c-0.265 0-0.48-0.215-0.48-0.48s0.215-0.48 0.48-0.48h0.958c0.265 0 0.48 0.214 0.48 0.48s-0.215 0.48-0.48 0.48zM14.409 14.302h-0.962c-0.266 0-0.48-0.215-0.48-0.48s0.214-0.48 0.48-0.48h0.962c0.266 0 0.48 0.214 0.48 0.48s-0.214 0.48-0.48 0.48zM16.34 23.423c-0.265 0-0.48-0.215-0.48-0.48 0-0.794 0.647-1.441 1.441-1.441 0.265 0 0.48 0.214 0.48 0.48s-0.215 0.48-0.48 0.48c-0.265 0-0.481 0.215-0.481 0.481s-0.215 0.48-0.48 0.48zM21.143 23.423c-0.265 0-0.48-0.215-0.48-0.48s-0.215-0.48-0.48-0.48c-0.265 0-0.48-0.215-0.48-0.48s0.215-0.48 0.48-0.48c0.794 0 1.44 0.646 1.44 1.44 0 0.265-0.215 0.48-0.48 0.48zM21.141 24.384h-4.801c-0.265 0-0.48-0.214-0.48-0.48s0.215-0.48 0.48-0.48h4.802c0.265 0 0.48 0.215 0.48 0.48s-0.215 0.48-0.48 0.48z"></path>
<path d="M20.22 22.462h-2.958c-0.265 0-0.48-0.215-0.48-0.48s0.215-0.48 0.48-0.48h2.958c0.266 0 0.48 0.214 0.48 0.48s-0.214 0.48-0.48 0.48z"></path>
<path d="M17.3 22.462c-0.265 0-0.48-0.215-0.48-0.48v-2.879c0-0.265 0.215-0.48 0.48-0.48s0.48 0.215 0.48 0.48v2.879c0 0.265-0.214 0.48-0.48 0.48zM20.183 22.463c-0.265 0-0.48-0.215-0.48-0.48v-2.88c0-0.265 0.215-0.48 0.48-0.48s0.48 0.215 0.48 0.48v2.88c0 0.265-0.215 0.48-0.48 0.48zM16.34 24.384c-0.265 0-0.48-0.214-0.48-0.48v-0.961c0-0.265 0.215-0.48 0.48-0.48s0.48 0.215 0.48 0.48v0.961c0 0.266-0.215 0.48-0.48 0.48zM21.143 24.384c-0.265 0-0.48-0.214-0.48-0.48v-0.961c0-0.265 0.215-0.48 0.48-0.48s0.48 0.215 0.48 0.48v0.961c0 0.266-0.215 0.48-0.48 0.48z"></path>
<path d="M20.182 19.583h-2.882c-0.265 0-0.48-0.215-0.48-0.48s0.215-0.48 0.48-0.48h2.882c0.265 0 0.48 0.215 0.48 0.48s-0.215 0.48-0.48 0.48zM20.661 21.023h-3.841c-0.265 0-0.48-0.215-0.48-0.48s0.215-0.48 0.48-0.48h3.841c0.266 0 0.48 0.215 0.48 0.48s-0.214 0.48-0.48 0.48zM22.58 23.423c-0.265 0-0.48-0.215-0.48-0.48 0-0.794 0.647-1.441 1.441-1.441 0.265 0 0.48 0.214 0.48 0.48s-0.215 0.48-0.48 0.48c-0.265 0-0.481 0.215-0.481 0.481s-0.215 0.48-0.48 0.48zM27.383 23.423c-0.265 0-0.48-0.215-0.48-0.48s-0.215-0.48-0.48-0.48c-0.265 0-0.48-0.215-0.48-0.48s0.215-0.48 0.48-0.48c0.794 0 1.44 0.646 1.44 1.44 0 0.265-0.215 0.48-0.48 0.48zM27.381 24.384h-4.801c-0.265 0-0.48-0.214-0.48-0.48s0.215-0.48 0.48-0.48h4.802c0.265 0 0.48 0.215 0.48 0.48s-0.215 0.48-0.48 0.48z"></path>
<path d="M26.46 22.462h-2.958c-0.265 0-0.48-0.215-0.48-0.48s0.215-0.48 0.48-0.48h2.958c0.266 0 0.48 0.214 0.48 0.48s-0.214 0.48-0.48 0.48z"></path>
<path d="M23.54 22.462c-0.265 0-0.48-0.215-0.48-0.48v-2.879c0-0.265 0.215-0.48 0.48-0.48s0.48 0.215 0.48 0.48v2.879c0 0.265-0.214 0.48-0.48 0.48zM26.423 22.463c-0.265 0-0.48-0.215-0.48-0.48v-2.88c0-0.265 0.215-0.48 0.48-0.48s0.48 0.215 0.48 0.48v2.88c0 0.265-0.215 0.48-0.48 0.48zM22.58 24.384c-0.265 0-0.48-0.214-0.48-0.48v-0.961c0-0.265 0.215-0.48 0.48-0.48s0.48 0.215 0.48 0.48v0.961c0 0.266-0.215 0.48-0.48 0.48zM27.383 24.384c-0.265 0-0.48-0.214-0.48-0.48v-0.961c0-0.265 0.215-0.48 0.48-0.48s0.48 0.215 0.48 0.48v0.961c0 0.266-0.215 0.48-0.48 0.48z"></path>
<path d="M26.422 19.583h-2.882c-0.265 0-0.48-0.215-0.48-0.48s0.215-0.48 0.48-0.48h2.882c0.265 0 0.48 0.215 0.48 0.48s-0.215 0.48-0.48 0.48zM26.901 21.023h-3.841c-0.265 0-0.48-0.215-0.48-0.48s0.215-0.48 0.48-0.48h3.841c0.266 0 0.48 0.215 0.48 0.48s-0.214 0.48-0.48 0.48z"></path>
</symbol>
<symbol id="icon-star" viewBox="0 0 32 32">
<path d="M30.475 12.404c-0.197-0.61-0.738-1.043-1.378-1.101l-8.693-0.789-3.437-8.045c-0.253-0.59-0.831-0.971-1.472-0.971s-1.219 0.382-1.472 0.973l-3.437 8.044-8.694 0.789c-0.639 0.059-1.178 0.491-1.377 1.101s-0.015 1.279 0.468 1.7l6.571 5.763-1.938 8.535c-0.142 0.628 0.102 1.276 0.622 1.653 0.28 0.202 0.607 0.305 0.938 0.305 0.285 0 0.567-0.077 0.821-0.229l7.498-4.482 7.496 4.482c0.549 0.33 1.24 0.3 1.759-0.077 0.521-0.378 0.764-1.026 0.622-1.653l-1.938-8.535 6.571-5.761c0.483-0.423 0.668-1.091 0.469-1.702z"></path>
</symbol>
<symbol id="icon-mail" viewBox="0 0 32 32">
<path d="M20.952 15.595l10.153 6.419v-13.109l-10.153 6.69zM0.989 8.905v13.109l10.153-6.419-10.153-6.69zM29.225 5.087h-26.353c-0.939 0-1.685 0.7-1.826 1.602l15.002 9.884 15.002-9.884c-0.141-0.902-0.887-1.602-1.826-1.602zM19.229 16.732l-2.663 1.754c-0.158 0.104-0.337 0.154-0.518 0.154s-0.36-0.051-0.518-0.154l-2.664-1.756-11.817 7.475c0.145 0.894 0.887 1.589 1.822 1.589h26.353c0.936 0 1.677-0.695 1.822-1.589l-11.817-7.473z"></path>
</symbol>
</defs>
</svg>
